HIERARCHY
ROOT Hips
{
  OFFSET 263.056 91.6644 -274.608
  CHANNELS 6 Xposition Yposition Zposition Zrotation Xrotation Yrotation
  JOINT LeftUpLeg
  {
    OFFSET 8.64259 1.95398 -2.38835
    CHANNELS 3 Zrotation Xrotation Yrotation
    JOINT LeftLeg
    {
      OFFSET 43.7702 0 0
      CHANNELS 3 Zrotation Xrotation Yrotation
      JOINT LeftFoot
      {
        OFFSET 40.6238 0 0
        CHANNELS 3 Zrotation Xrotation Yrotation
        JOINT LeftToeBase
        {
          OFFSET 12.7242 0 0
          CHANNELS 3 Zrotation Xrotation Yrotation
          End Site
          {
            OFFSET 0 0 0
          }
        }
      }
    }
  }
  JOINT RightUpLeg
  {
    OFFSET -8.2249 1.95398 -2.59336
    CHANNELS 3 Zrotation Xrotation Yrotation
    JOINT RightLeg
    {
      OFFSET 43.5653 0 0
      CHANNELS 3 Zrotation Xrotation Yrotation
      JOINT RightFoot
      {
        OFFSET 40.6238 0 0
        CHANNELS 3 Zrotation Xrotation Yrotation
        JOINT RightToeBase
        {
          OFFSET 12.7242 0 0
          CHANNELS 3 Zrotation Xrotation Yrotation
          End Site
          {
            OFFSET 0 0 0
          }
        }
      }
    }
  }
  JOINT Spine
  {
    OFFSET 0.165834 0.87714 6.61349
    CHANNELS 3 Zrotation Xrotation Yrotation
    JOINT Spine1
    {
      OFFSET 7.38963 1.71661e-005 0
      CHANNELS 3 Zrotation Xrotation Yrotation
      JOINT Spine2
      {
        OFFSET 11.9445 1.14441e-005 0
        CHANNELS 3 Zrotation Xrotation Yrotation
        JOINT Spine3
        {
          OFFSET 14.7254 4.19617e-005 0
          CHANNELS 3 Zrotation Xrotation Yrotation
          JOINT Spine4
          {
            OFFSET 10.9679 0 0
            CHANNELS 3 Zrotation Xrotation Yrotation
            JOINT RightShoulder
            {
              OFFSET 2.46616 -1.6653 3.69651
              CHANNELS 3 Zrotation Xrotation Yrotation
              JOINT RightArm
              {
                OFFSET 13.0012 0 0
                CHANNELS 3 Zrotation Xrotation Yrotation
                JOINT RightForeArm
                {
                  OFFSET 28.7848 1.52588e-005 0
                  CHANNELS 3 Zrotation Xrotation Yrotation
                  JOINT RightHand
                  {
                    OFFSET 26.5688 1.52588e-005 0
                    CHANNELS 3 Zrotation Xrotation Yrotation
                    End Site
                    {
                      OFFSET 0 0 0
                    }
                  }
                }
              }
            }
            JOINT LeftShoulder
            {
              OFFSET 2.38034 -1.29275 -3.7523
              CHANNELS 3 Zrotation Xrotation Yrotation
              JOINT LeftArm
              {
                OFFSET 16.3182 6.10352e-005 0
                CHANNELS 3 Zrotation Xrotation Yrotation
                JOINT LeftForeArm
                {
                  OFFSET 27.0901 0 0
                  CHANNELS 3 Zrotation Xrotation Yrotation
                  JOINT LeftHand
                  {
                    OFFSET 24.5451 1.52588e-005 0
                    CHANNELS 3 Zrotation Xrotation Yrotation
                    End Site
                    {
                      OFFSET 0 0 0
                    }
                  }
                }
              }
            }
            JOINT Neck
            {
              OFFSET 5.0226 -0.0266342 0
              CHANNELS 3 Zrotation Xrotation Yrotation
              JOINT Head
              {
                OFFSET 6.69364 2.86102e-005 0
                CHANNELS 3 Zrotation Xrotation Yrotation
                End Site
                {
                  OFFSET 0 0 0
                }
              }
            }
          }
        }
      }
    }
  }
}
MOTION
Frames:	9
Frame Time:	0.0416667
312.121 82.5811 178.743 -24.6731 14.5613 79.7764 135.548 84.4575 141.631 -2.87732 -41.0205 -4.36489 8.71981 -40.327 -32.5462 10.3249 19.3684 -153.126 -8.43694 42.1543 -108.56 -63.6098 8.97437 31.9597 112.898 -15.3541 2.67615 36.2422 -43.5118 173.773 -4.26055 5.17928 -102.508 14.4993 -14.5424 -23.1463 2.71296 -15.5214 -22.5219 -18.3897 -7.18858 -26.221 1.62292 -7.18859 -26.221 56.8359 71.1254 -8.63405 44.8173 52.2805 170.568 -10.4799 -32.9794 0.000271439 -21.6698 2.59111 -20.4982 8.57523 -41.8652 -147.654 -0.810403 8.64356 -66.481 -18.143 49.2816 -2.9879 84.0601 -4.44536 -9.00466 -91.2545 -44.2413 -163.305 88.2824 67.2709 113.242 
312.377 82.4746 178.901 -25.3273 14.718 80.029 131.249 84.8838 146.089 -3.31914 -41.8493 -4.9314 9.19311 -40.8423 -31.5 7.42474 20.8536 -152.842 -8.64568 41.4605 -108.714 -63.5699 8.22791 32.064 114.221 -15.8471 2.86426 31.7854 -68.0979 166.733 -4.24839 5.1646 -102.596 14.5064 -14.5615 -23.3219 2.71725 -15.5477 -22.6973 -18.3597 -7.15963 -26.3909 1.65296 -7.15964 -26.3909 55.9365 71.0891 -7.36706 47.4001 54.5708 168.183 -10.2452 -29.9792 0.000262872 -22.3819 3.06894 -22.2673 7.88556 -40.8126 -147.587 -1.68064 8.76165 -66.6024 -17.7619 50.4197 -3.15871 83.5438 -4.08885 -8.66331 -91.2243 -44.045 -163.154 90.2932 64.5505 110.648 
313.096 82.1719 179.349 -27.2405 15.1337 80.776 114.152 85.8879 163.684 -4.68301 -43.8915 -6.70542 10.8868 -42.1383 -28.3717 0.327587 24.3417 -151.836 -9.24263 39.3811 -109.201 -63.676 6.27118 32.4493 117.686 -17.076 3.45912 -82.1101 -75.982 43.2227 -4.20095 5.12065 -102.843 14.5336 -14.589 -23.8157 2.73594 -15.5952 -23.1918 -18.2664 -7.0534 -26.8612 1.74621 -7.0534 -26.8612 53.5404 70.9462 -3.95779 56.7301 61.0106 159.664 -9.18955 -20.6729 0.000243372 -24.1315 4.57502 -27.5721 5.89526 -37.8547 -147.403 -4.20729 9.13367 -66.8305 -16.3884 53.5173 -3.9053 82.0241 -3.24715 -7.8505 -91.0369 -44.0367 -162.444 92.7259 58.3967 106.801 
314.191 81.6979 180.04 -30.4282 15.6855 82.0335 72.1502 86.1796 -153.395 -7.26911 -46.2791 -9.9206 14.3562 -43.7008 -23.2585 -7.57539 28.0123 -150.421 -10.162 35.8273 -110.127 -64.3547 3.61501 33.2616 122.401 -18.5565 4.51639 -81.3004 -55.1973 28.4726 -4.08347 5.04668 -103.221 14.5948 -14.5438 -24.5786 2.78274 -15.5808 -23.9597 -18.098 -6.80608 -27.5636 1.91464 -6.80608 -27.5636 50.2885 70.6107 0.818579 82.6068 70.0661 135.823 -6.15021 -3.08785 0.000228032 -25.4829 7.1446 -36.7619 2.71826 -33.3369 -147.12 -8.27893 9.80335 -66.8346 -13.1 57.9122 -6.12725 79.4689 -2.40539 -7.03888 -90.7391 -44.6669 -160.894 93.5905 52.1737 104.256 
315.566 81.0821 180.932 -34.9234 16.168 83.8134 34.4561 83.7064 -114.223 -11.2609 -48.3584 -14.7934 19.8538 -44.9263 -16.4462 -12.9472 30.6652 -149.891 -11.2778 30.7948 -111.608 -65.8499 0.714454 34.5569 127.621 -19.852 6.01095 -70.7537 -40.774 24.1666 -3.85178 4.94744 -103.693 14.6981 -14.3231 -25.5542 2.865 -15.3994 -24.9487 -17.8493 -6.33488 -28.4174 2.16334 -6.33489 -28.4174 46.8605 70.0476 6.10968 148.741 71.2562 73.997 0.396919 27.9018 0.000257653 -22.5853 8.8596 -49.8191 -1.5459 -27.6399 -146.751 -13.7404 10.7769 -66.1923 -5.76772 62.6549 -11.9149 75.6743 -2.04515 -6.7816 -90.5311 -45.63 -158.611 93.9617 47.3352 102.258 
317.134 80.366 182.002 -40.5222 16.2825 86.0096 19.1711 78.9268 -96.8051 -17.1583 -49.7274 -21.1489 26.9887 -45.4368 -8.86636 -13.5581 31.8901 -151.648 -12.417 24.5858 -113.629 -68.1275 -2.13112 36.2067 132.87 -20.6908 7.81031 -64.3017 -32.0319 20.3043 -3.48359 4.84404 -104.204 14.822 -13.8547 -26.6439 2.96237 -14.9747 -26.0628 -17.553 -5.59735 -29.3123 2.45967 -5.59737 -29.3123 43.7463 69.3432 11.1547 -164.148 50.909 35.0093 11.482 77.9896 0.0298962 -11.9324 3.7249 -60.1482 -6.71541 -21.2368 -146.297 -20.2629 11.9075 -64.6175 8.80187 66.0719 -24.464 70.2695 -2.45356 -7.58848 -90.5054 -46.5103 -155.848 94.6089 43.6991 100.174 
318.855 79.6004 183.246 -46.3588 15.7508 88.2777 12.5464 71.2895 -86.7964 -29.5383 -48.759 -29.5319 35.7077 -45.7493 -2.89343 -7.4729 30.9009 -156.887 -13.3741 18.071 -115.961 -71.0388 -4.77291 37.8539 137.88 -20.9462 9.69468 -60.9351 -26.6282 17.0475 -3.09172 4.7961 -104.786 14.8226 -13.3612 -27.8936 2.93222 -14.5307 -27.3384 -17.3533 -4.79553 -30.3542 2.6593 -4.79554 -30.3542 39.6929 68.4357 17.521 -136.457 14.0361 24.4342 -144.797 43.2478 179.976 -3.16291 -4.0622 -54.567 -14.4532 -12.9026 -145.921 -28.6707 14.2527 -59.7837 30.7278 65.9249 -44.4357 62.8745 -3.45354 -9.61979 -91.2917 -48.2247 -153.196 95.4151 41.0033 97.8322 
321.639 78.7232 184.647 -44.4532 15.0624 89.5698 -4.78455 70.0391 -67.2414 -43.1095 -40.3603 -50.2977 51.815 -34.3345 5.08333 10.5538 22.9573 -166.459 -14.6505 13.7621 -113.654 -74.6525 -8.03755 36.9696 142.91 -21.0313 11.0392 -58.5712 -23.2213 14.8536 -3.65163 5.24083 -105.266 13.7489 -14.6032 -28.8332 1.86514 -15.8145 -28.2292 -18.4008 -5.70103 -31.562 1.61188 -5.70103 -31.562 35.1871 67.9826 23.2299 -113.152 -17.392 27.2495 -118.959 -1.14699 179.973 -4.48869 -4.21575 -44.8767 -22.9973 -4.71939 -145.478 -37.1307 16.0964 -53.5186 49.2984 60.2911 -61.3256 53.8749 -4.64726 -12.8903 -92.566 -49.5691 -150.585 96.4585 38.536 95.7107 
311.246 79.446 186.023 -134.695 7.02686 94.762 115.956 24.1501 -113.108 82.0035 -31.2668 87.3253 122.607 -36.1516 152.799 30.7606 9.39159 -173.596 -58.8187 -50.3583 -169.829 -80.2793 -0.213778 68.0243 141.291 -13.6276 17.7278 -62.7275 -14.8223 6.1025 7.84039 0.287451 -103.943 26.4787 6.79752 -31.1547 14.4537 5.48799 -31.3868 -5.71753 15.5026 -28.1348 14.2952 15.5026 -28.1348 30.3546 68.2528 27.6592 -94.0045 -32.6878 33.5411 -106.115 -56.8108 179.945 -7.56793 -2.12277 -39.8843 -30.8309 1.94406 -145.08 -44.1131 16.3719 -47.8083 58.7825 51.6672 -69.8356 44.5891 -5.48308 -16.7451 -94.0426 -49.8001 -148.056 97.7972 35.97 93.9956 
